<svg xmlns="http://www.w3.org/2000/svg" width="800" height="605.0211799144745" viewBox="0 0 800 605.0211799144745"><defs><filter id="highBetaShadow" x="-30%" y="-30%" width="160%" height="160%"><feGaussianBlur stdDeviation="4" result="coloredBlur" /><feMerge><feMergeNode in="coloredBlur" /><feMergeNode in="SourceGraphic" /></feMerge></filter><filter id="lowBetaGrayscale"><feColorMatrix type="matrix" values="0.3 0.3 0.3 0 0  0.3 0.3 0.3 0 0  0.3 0.3 0.3 0 0  0 0 0 1 0" /></filter></defs><path d="M 164.19351612511846 206.50062799453735 C 164.19351612511846 191.50062799453735, 400.0 191.50062799453735, 400.0 176.50062799453735" stroke="#5DADE2" stroke-width="3" stroke-linecap="round" stroke-linejoin="round" fill="none" opacity="0.8" /><line x1="400.0" y1="186.50062799453735" x2="389.3628099385982" y2="180.94633347609354" stroke="#3498DB" stroke-width="3" /><line x1="400.0" y1="186.50062799453735" x2="389.8712448162261" y2="192.93555755337275" stroke="#3498DB" stroke-width="3" /><path d="M 316.0555418830755 206.50062799453735 C 316.0555418830755 191.50062799453735, 400.0 191.50062799453735, 400.0 176.50062799453735" stroke="#5DADE2" stroke-width="3" stroke-linecap="round" stroke-linejoin="round" fill="none" opacity="0.8" /><line x1="400.0" y1="186.50062799453735" x2="388.97091852348296" y2="181.7720593121188" stroke="#3498DB" stroke-width="3" /><line x1="400.0" y1="186.50062799453735" x2="390.3903986592275" y2="193.6878083924002" stroke="#3498DB" stroke-width="3" /><path d="M 400.0 231.50062799453735 L 400.0 241.50062799453735" stroke="#5DADE2" stroke-width="3" stroke-linecap="round" stroke-linejoin="round" fill="none" opacity="0.8" /><line x1="400.0" y1="251.50062799453735" x2="394.0" y2="261.8929328399506" stroke="#3498DB" stroke-width="3" /><line x1="400.0" y1="251.50062799453735" x2="406.0" y2="261.8929328399506" stroke="#3498DB" stroke-width="3" /><path d="M 400.0 356.50062799453735 L 400.0 436.50062799453735" stroke="#5DADE2" stroke-width="3" stroke-linecap="round" stroke-linejoin="round" fill="none" opacity="0.8" /><line x1="400.0" y1="446.50062799453735" x2="394.0" y2="456.8929328399506" stroke="#3498DB" stroke-width="3" /><line x1="400.0" y1="446.50062799453735" x2="406.0" y2="456.8929328399506" stroke="#3498DB" stroke-width="3" /><rect x="118.26250324613994" y="60" width="108" height="106" fill="#4A90D9" fill-opacity="0.8278847754001617" stroke="#2E5C8A" stroke-width="2" rx="4" ry="4" /><rect x="118.26250324613994" y="60" width="108" height="28" fill="#2E5C8A" /><text x="172.26250324613994" y="80.0" text-anchor="middle" fill="white" font-size="13" font-weight="bold">departments</text><line x1="126.26250324613994" y1="98" x2="218.26250324613994" y2="98" stroke="#2E5C8A" stroke-opacity="0.3" /><text x="172.26250324613994" y="102" text-anchor="middle" fill="#2E5C8A" font-size="13">name</text><line x1="126.26250324613994" y1="120" x2="218.26250324613994" y2="120" stroke="#2E5C8A" stroke-opacity="0.3" /><text x="172.26250324613994" y="124" text-anchor="middle" fill="#2E5C8A" font-size="13">COUNT(*)</text><line x1="126.26250324613994" y1="142" x2="218.26250324613994" y2="142" stroke="#2E5C8A" stroke-opacity="0.3" /><text x="172.26250324613994" y="146" text-anchor="middle" fill="#2E5C8A" font-size="13">salary)</text><rect x="270.124529004097" y="60" width="108" height="106" fill="#4A90D9" fill-opacity="0.8278847754001617" stroke="#2E5C8A" stroke-width="2" rx="4" ry="4" /><rect x="270.124529004097" y="60" width="108" height="28" fill="#2E5C8A" /><text x="324.124529004097" y="80.0" text-anchor="middle" fill="white" font-size="13" font-weight="bold">departments</text><line x1="278.124529004097" y1="98" x2="370.124529004097" y2="98" stroke="#2E5C8A" stroke-opacity="0.3" /><text x="324.124529004097" y="102" text-anchor="middle" fill="#2E5C8A" font-size="13">name</text><line x1="278.124529004097" y1="120" x2="370.124529004097" y2="120" stroke="#2E5C8A" stroke-opacity="0.3" /><text x="324.124529004097" y="124" text-anchor="middle" fill="#2E5C8A" font-size="13">COUNT(*)</text><line x1="278.124529004097" y1="142" x2="370.124529004097" y2="142" stroke="#2E5C8A" stroke-opacity="0.3" /><text x="324.124529004097" y="146" text-anchor="middle" fill="#2E5C8A" font-size="13">salary)</text><polygon points="346.5689871210215,256.50062799453735 453.43101287897855,256.50062799453735 416.0,341.50062799453735 384.0,341.50062799453735" fill="#E74C3C" fill-opacity="1.0" stroke="#922B21" stroke-width="3.5" filter="url(#highBetaShadow)"><animate attributeName="stroke-width" values="3.5;5.25;3.5" dur="2s" repeatCount="indefinite" /></polygon><text x="400.0" y="294.00062799453735" text-anchor="middle" fill="white" font-size="13" font-weight="bold">Filter</text><text x="463.43101287897855" y="268.50062799453735" fill="#E74C3C" font-size="10" font-weight="bold" font-family="monospace">β=1.000</text><text x="400.0" y="311.00062799453735" text-anchor="middle" fill="#FFF3E0" font-size="11">e.age &gt; 25</text><path d="M 400.0 344.50062799453735 L 400.0 354.50062799453735 M 396.0 351.50062799453735 L 400.0 354.50062799453735 L 404.0 351.50062799453735" stroke="#922B21" stroke-width="3" fill="none" /><circle cx="400.0" cy="191.50062799453735" r="8" fill="#9B59B6" stroke="#7D3C98" stroke-width="2" /><text x="400.0" y="176.50062799453735" text-anchor="middle" fill="#7D3C98" font-size="13" font-weight="bold">JOIN</text><rect x="281.6345673799515" y="356.50062799453735" width="35.34617304801941" height="96.78180575370789" fill="#1ABC9C" fill-opacity="0.85" stroke="#2C3E50" stroke-width="1" /><text x="299.3076539039612" y="468.28243374824524" text-anchor="middle" fill="#2C3E50" font-size="13">name</text><rect x="331.9807404279709" y="370.05008080005643" width="35.34617304801941" height="83.23235294818878" fill="#2ECC71" fill-opacity="0.85" stroke="#2C3E50" stroke-width="1" /><text x="349.6538269519806" y="468.28243374824524" text-anchor="middle" fill="#2C3E50" font-size="13">组2</text><rect x="382.3269134759903" y="383.5995336055756" width="35.34617304801941" height="69.68290014266968" fill="#3498DB" fill-opacity="0.85" stroke="#2C3E50" stroke-width="1" /><text x="400.0" y="468.28243374824524" text-anchor="middle" fill="#2C3E50" font-size="13">组3</text><rect x="432.6730865240097" y="397.14898641109465" width="35.34617304801941" height="56.13344733715057" fill="#9B59B6" fill-opacity="0.85" stroke="#2C3E50" stroke-width="1" /><text x="450.3461730480194" y="468.28243374824524" text-anchor="middle" fill="#2C3E50" font-size="13">组4</text><rect x="483.0192595720291" y="410.6984392166138" width="35.34617304801941" height="42.58399453163146" fill="#E67E22" fill-opacity="0.85" stroke="#2C3E50" stroke-width="1" /><text x="500.6923460960388" y="468.28243374824524" text-anchor="middle" fill="#2C3E50" font-size="13">组5</text><line x1="276.6345673799515" y1="453.28243374824524" x2="523.3654326200485" y2="453.28243374824524" stroke="#2C3E50" stroke-width="2" /><text x="400.0" y="346.50062799453735" text-anchor="middle" fill="#2C3E50" font-size="11" font-weight="bold">分组聚合</text><rect x="346.0" y="451.50062799453735" width="108" height="102" fill="#58D68D" fill-opacity="0.9267308652400971" stroke="#1E8449" stroke-width="2" rx="6" ry="6" /><rect x="346.0" y="451.50062799453735" width="108" height="24" fill="#1E8449" /><text x="400.0" y="468.50062799453735" text-anchor="middle" fill="white" font-size="13" font-weight="bold">Result</text><line x1="354.0" y1="485.50062799453735" x2="446.0" y2="485.50062799453735" stroke="#1E8449" stroke-opacity="0.3" /><text x="400.0" y="489.50062799453735" text-anchor="middle" fill="#1E8449" font-size="13">name</text><line x1="354.0" y1="507.50062799453735" x2="446.0" y2="507.50062799453735" stroke="#1E8449" stroke-opacity="0.3" /><text x="400.0" y="511.50062799453735" text-anchor="middle" fill="#1E8449" font-size="13">COUNT(*)</text><line x1="354.0" y1="529.5006279945374" x2="446.0" y2="529.5006279945374" stroke="#1E8449" stroke-opacity="0.3" /><text x="400.0" y="533.5006279945374" text-anchor="middle" fill="#1E8449" font-size="13">salary)</text><rect x="620" y="30" width="12" height="12" fill="#FFB347" fill-opacity="0.8" /><text x="640" y="40" fill="#2C3E50" font-size="13" font-weight="bold">Funnel</text><text x="680" y="40" fill="#7F8C8D" font-size="12">WHERE/HAVING</text><rect x="620" y="65" width="12" height="12" fill="#9B59B6" fill-opacity="0.8" /><text x="640" y="75" fill="#2C3E50" font-size="13" font-weight="bold">Branch</text><text x="680" y="75" fill="#7F8C8D" font-size="12">JOIN Merge</text><rect x="620" y="100" width="12" height="12" fill="#1ABC9C" fill-opacity="0.8" /><text x="640" y="110" fill="#2C3E50" font-size="13" font-weight="bold">Stack</text><text x="680" y="110" fill="#7F8C8D" font-size="12">GROUP BY</text><rect x="238.26250324613994" y="65" width="105" height="70" fill="#2980B9" fill-opacity="0.08" stroke="#2980B9" stroke-width="1" stroke-dasharray="3,2" rx="4" ry="4" /><text x="244.26250324613994" y="78" fill="#2980B9" font-size="9" font-weight="bold">NL attn: Entity</text><line x1="238.26250324613994" y1="100.0" x2="226.26250324613994" y2="113.0" stroke="#2980B9" stroke-width="1" stroke-dasharray="2,2" opacity="0.5" /><text x="246.26250324613994" y="93" fill="#2980B9" font-size="10" font-weight="normal">ry</text><rect x="319.1025032461399" y="85" width="16.16" height="8" fill="#2980B9" fill-opacity="0.24" rx="2" /><text x="246.26250324613994" y="109" fill="#2980B9" font-size="10" font-weight="normal">Count</text><rect x="319.58250324613994" y="101" width="15.68" height="8" fill="#2980B9" fill-opacity="0.24" rx="2" /><text x="246.26250324613994" y="125" fill="#2980B9" font-size="10" font-weight="normal">department</text><rect x="319.64250324613994" y="117" width="15.620000000000001" height="8" fill="#2980B9" fill-opacity="0.23" rx="2" /><rect x="562.0" y="196.50062799453735" width="70" height="70" fill="#8E44AD" fill-opacity="0.08" stroke="#8E44AD" stroke-width="1" stroke-dasharray="3,2" rx="4" ry="4" /><text x="568.0" y="209.50062799453735" fill="#8E44AD" font-size="9" font-weight="bold">NL attn: Join</text><line x1="562.0" y1="231.50062799453735" x2="550.0" y2="223.20822842419147" stroke="#8E44AD" stroke-width="1" stroke-dasharray="2,2" opacity="0.5" /><text x="570.0" y="224.50062799453735" fill="#8E44AD" font-size="10" font-weight="normal">in</text><rect x="611.78" y="216.50062799453735" width="12.22" height="8" fill="#8E44AD" fill-opacity="0.18" rx="2" /><text x="570.0" y="240.50062799453735" fill="#8E44AD" font-size="10" font-weight="normal">25</text><rect x="612.06" y="232.50062799453735" width="11.940000000000001" height="8" fill="#8E44AD" fill-opacity="0.18" rx="2" /><text x="570.0" y="256.50062799453735" fill="#8E44AD" font-size="10" font-weight="normal">and</text><rect x="612.34" y="248.50062799453735" width="11.66" height="8" fill="#8E44AD" fill-opacity="0.17" rx="2" /><rect x="465.43101287897855" y="261.50062799453735" width="105" height="70" fill="#E67E22" fill-opacity="0.08" stroke="#E67E22" stroke-width="1" stroke-dasharray="3,2" rx="4" ry="4" /><text x="471.43101287897855" y="274.50062799453735" fill="#E67E22" font-size="9" font-weight="bold">NL attn: Cond</text><line x1="465.43101287897855" y1="296.50062799453735" x2="453.43101287897855" y2="299.00062799453735" stroke="#E67E22" stroke-width="1" stroke-dasharray="2,2" opacity="0.5" /><text x="473.43101287897855" y="289.50062799453735" fill="#E67E22" font-size="10" font-weight="normal">ry</text><rect x="546.6910128789785" y="281.50062799453735" width="15.740000000000002" height="8" fill="#E67E22" fill-opacity="0.24" rx="2" /><text x="473.43101287897855" y="305.50062799453735" fill="#E67E22" font-size="10" font-weight="normal">Count</text><rect x="547.0110128789786" y="297.50062799453735" width="15.42" height="8" fill="#E67E22" fill-opacity="0.23" rx="2" /><text x="473.43101287897855" y="321.50062799453735" fill="#E67E22" font-size="10" font-weight="normal">department</text><rect x="547.1910128789785" y="313.50062799453735" width="15.24" height="8" fill="#E67E22" fill-opacity="0.23" rx="2" /><rect x="443.6345673799515" y="361.50062799453735" width="70" height="70" fill="#27AE60" fill-opacity="0.08" stroke="#27AE60" stroke-width="1" stroke-dasharray="3,2" rx="4" ry="4" /><text x="449.6345673799515" y="374.50062799453735" fill="#27AE60" font-size="9" font-weight="bold">NL attn: Result</text><line x1="443.6345673799515" y1="396.50062799453735" x2="431.6345673799515" y2="404.8915308713913" stroke="#27AE60" stroke-width="1" stroke-dasharray="2,2" opacity="0.5" /><text x="451.6345673799515" y="389.50062799453735" fill="#27AE60" font-size="10" font-weight="normal">in</text><rect x="493.41456737995145" y="381.50062799453735" width="12.22" height="8" fill="#27AE60" fill-opacity="0.18" rx="2" /><text x="451.6345673799515" y="405.50062799453735" fill="#27AE60" font-size="10" font-weight="normal">25</text><rect x="493.6945673799515" y="397.50062799453735" width="11.940000000000001" height="8" fill="#27AE60" fill-opacity="0.18" rx="2" /><text x="451.6345673799515" y="421.50062799453735" fill="#27AE60" font-size="10" font-weight="normal">and</text><rect x="493.97456737995145" y="413.50062799453735" width="11.66" height="8" fill="#27AE60" fill-opacity="0.17" rx="2" /><text x="20" y="535.0211799144745" fill="#2C3E50" font-size="12" font-weight="bold">Query: </text><text x="70" y="535.0211799144745" fill="#34495E" font-size="11">Count and average salary of employees over 25 in e...</text><text x="20" y="549.0211799144745" fill="#2C3E50" font-size="11" font-weight="bold">SQL: </text><text x="60" y="565.0211799144745" fill="#7F8C8D" font-size="10">SELECT d.name, COUNT(*), AVG(e.salary) FROM departments d JOIN employees e ON d.id =</text><text x="60" y="577.0211799144745" fill="#7F8C8D" font-size="10">e.dept_id WHERE e.age &gt; 25 GROUP BY d.name</text></svg>