<svg xmlns="http://www.w3.org/2000/svg" width="800" height="500" viewBox="0 0 800 500"><defs><filter id="highBetaShadow" x="-30%" y="-30%" width="160%" height="160%"><feGaussianBlur stdDeviation="4" result="coloredBlur" /><feMerge><feMergeNode in="coloredBlur" /><feMergeNode in="SourceGraphic" /></feMerge></filter><filter id="lowBetaGrayscale"><feColorMatrix type="matrix" values="0.3 0.3 0.3 0 0  0.3 0.3 0.3 0 0  0.3 0.3 0.3 0 0  0 0 0 1 0" /></filter></defs><path d="M 400.0 134 L 400.0 124" stroke="#5DADE2" stroke-width="3" stroke-linecap="round" stroke-linejoin="round" fill="none" opacity="0.8" /><line x1="400.0" y1="134" x2="394.0" y2="144.39230484541326" stroke="#3498DB" stroke-width="3" /><line x1="400.0" y1="134" x2="406.0" y2="144.39230484541326" stroke="#3498DB" stroke-width="3" /><path d="M 400.0 239.08049607276917 L 400.0 219" stroke="#5DADE2" stroke-width="3" stroke-linecap="round" stroke-linejoin="round" fill="none" opacity="0.8" /><line x1="400.0" y1="229" x2="394.0" y2="239.39230484541326" stroke="#3498DB" stroke-width="3" /><line x1="400.0" y1="229" x2="406.0" y2="239.39230484541326" stroke="#3498DB" stroke-width="3" /><rect x="340.0" y="40" width="120" height="84" fill="#4A90D9" fill-opacity="0.8225845962762832" stroke="#2E5C8A" stroke-width="2" rx="4" ry="4" /><rect x="340.0" y="40" width="120" height="28" fill="#2E5C8A" /><text x="400.0" y="60.0" text-anchor="middle" fill="white" font-size="13" font-weight="bold">employees</text><line x1="348.0" y1="78" x2="452.0" y2="78" stroke="#2E5C8A" stroke-opacity="0.3" /><text x="400.0" y="82" text-anchor="middle" fill="#2E5C8A" font-size="13">department</text><line x1="348.0" y1="100" x2="452.0" y2="100" stroke="#2E5C8A" stroke-opacity="0.3" /><text x="400.0" y="104" text-anchor="middle" fill="#2E5C8A" font-size="13">COUNT(*)</text><rect x="258.369545340538" y="139.0" width="34.71015155315399" height="85.08049607276917" fill="#1ABC9C" fill-opacity="0.85" stroke="#2C3E50" stroke-width="1" /><text x="275.724621117115" y="239.08049607276917" text-anchor="middle" fill="#2C3E50" font-size="13">department</text><rect x="308.079696893692" y="148.9260578751564" width="34.71015155315399" height="75.15443819761276" fill="#2ECC71" fill-opacity="0.85" stroke="#2C3E50" stroke-width="1" /><text x="325.434772670269" y="239.08049607276917" text-anchor="middle" fill="#2C3E50" font-size="13">组2</text><rect x="357.789848446846" y="158.8521157503128" width="34.71015155315399" height="65.22838032245636" fill="#3498DB" fill-opacity="0.85" stroke="#2C3E50" stroke-width="1" /><text x="375.144924223423" y="239.08049607276917" text-anchor="middle" fill="#2C3E50" font-size="13">组3</text><rect x="407.5" y="168.7781736254692" width="34.71015155315399" height="55.30232244729995" fill="#9B59B6" fill-opacity="0.85" stroke="#2C3E50" stroke-width="1" /><text x="424.855075776577" y="239.08049607276917" text-anchor="middle" fill="#2C3E50" font-size="13">组4</text><rect x="457.210151553154" y="178.7042315006256" width="34.71015155315399" height="45.376264572143555" fill="#E67E22" fill-opacity="0.85" stroke="#2C3E50" stroke-width="1" /><text x="474.565227329731" y="239.08049607276917" text-anchor="middle" fill="#2C3E50" font-size="13">组5</text><rect x="506.920303106308" y="188.630289375782" width="34.71015155315399" height="35.45020669698715" fill="#1ABC9C" fill-opacity="0.85" stroke="#2C3E50" stroke-width="1" /><text x="524.275378882885" y="239.08049607276917" text-anchor="middle" fill="#2C3E50" font-size="13">组6</text><line x1="253.36954534053802" y1="224.08049607276917" x2="546.630454659462" y2="224.08049607276917" stroke="#2C3E50" stroke-width="2" /><text x="400.0" y="129" text-anchor="middle" fill="#2C3E50" font-size="11" font-weight="bold">分组聚合</text><rect x="340.0" y="234" width="120" height="80" fill="#58D68D" fill-opacity="0.9235507577657699" stroke="#1E8449" stroke-width="2" rx="6" ry="6" /><rect x="340.0" y="234" width="120" height="24" fill="#1E8449" /><text x="400.0" y="251.0" text-anchor="middle" fill="white" font-size="13" font-weight="bold">Result</text><line x1="348.0" y1="268" x2="452.0" y2="268" stroke="#1E8449" stroke-opacity="0.3" /><text x="400.0" y="272" text-anchor="middle" fill="#1E8449" font-size="13">department</text><line x1="348.0" y1="290" x2="452.0" y2="290" stroke="#1E8449" stroke-opacity="0.3" /><text x="400.0" y="294" text-anchor="middle" fill="#1E8449" font-size="13">COUNT(*)</text><rect x="620" y="30" width="12" height="12" fill="#4A90D9" fill-opacity="0.8" /><text x="640" y="40" fill="#2C3E50" font-size="13" font-weight="bold">Container</text><text x="680" y="40" fill="#7F8C8D" font-size="12">Table/Result</text><rect x="620" y="65" width="12" height="12" fill="#1ABC9C" fill-opacity="0.8" /><text x="640" y="75" fill="#2C3E50" font-size="13" font-weight="bold">Stack</text><text x="680" y="75" fill="#7F8C8D" font-size="12">GROUP BY</text><rect x="472.0" y="45" width="105" height="70" fill="#2980B9" fill-opacity="0.08" stroke="#2980B9" stroke-width="1" stroke-dasharray="3,2" rx="4" ry="4" /><text x="478.0" y="58" fill="#2980B9" font-size="9" font-weight="bold">NL attn: Entity</text><line x1="472.0" y1="80.0" x2="460.0" y2="82.0" stroke="#2980B9" stroke-width="1" stroke-dasharray="2,2" opacity="0.5" /><text x="480.0" y="73" fill="#2980B9" font-size="10" font-weight="bold">Count</text><rect x="539.0" y="65" width="30" height="8" fill="#2980B9" fill-opacity="0.50" rx="2" /><text x="480.0" y="89" fill="#2980B9" font-size="10" font-weight="bold">department</text><rect x="539.0" y="81" width="30" height="8" fill="#2980B9" fill-opacity="0.48" rx="2" /><text x="480.0" y="105" fill="#2980B9" font-size="10" font-weight="bold">employees</text><rect x="539.0" y="97" width="30" height="8" fill="#2980B9" fill-opacity="0.48" rx="2" /><rect x="420.369545340538" y="144" width="70" height="70" fill="#27AE60" fill-opacity="0.08" stroke="#27AE60" stroke-width="1" stroke-dasharray="3,2" rx="4" ry="4" /><text x="426.369545340538" y="157" fill="#27AE60" font-size="9" font-weight="bold">NL attn: Result</text><line x1="420.369545340538" y1="179.0" x2="408.369545340538" y2="181.54024803638458" stroke="#27AE60" stroke-width="1" stroke-dasharray="2,2" opacity="0.5" /><text x="428.369545340538" y="172" fill="#27AE60" font-size="10" font-weight="normal">in</text><rect x="463.04954534053803" y="164" width="19.32" height="8" fill="#27AE60" fill-opacity="0.29" rx="2" /><text x="428.369545340538" y="188" fill="#27AE60" font-size="10" font-weight="normal">each</text><rect x="464.54954534053803" y="180" width="17.82" height="8" fill="#27AE60" fill-opacity="0.27" rx="2" /><text x="428.369545340538" y="204" fill="#27AE60" font-size="10" font-weight="normal">Count</text><rect x="464.709545340538" y="196" width="17.66" height="8" fill="#27AE60" fill-opacity="0.26" rx="2" /><text x="20" y="314.7761460542679" fill="#2C3E50" font-size="12" font-weight="bold">Query: </text><text x="70" y="314.7761460542679" fill="#34495E" font-size="11">Count employees in each department</text><text x="20" y="328.7761460542679" fill="#2C3E50" font-size="11" font-weight="bold">SQL: </text><text x="60" y="344.7761460542679" fill="#7F8C8D" font-size="10">SELECT department, COUNT(*) FROM employees GROUP BY department</text></svg>