<svg xmlns="http://www.w3.org/2000/svg" width="800" height="500" viewBox="0 0 800 500"><defs><filter id="highBetaShadow" x="-30%" y="-30%" width="160%" height="160%"><feGaussianBlur stdDeviation="4" result="coloredBlur" /><feMerge><feMergeNode in="coloredBlur" /><feMergeNode in="SourceGraphic" /></feMerge></filter><filter id="lowBetaGrayscale"><feColorMatrix type="matrix" values="0.3 0.3 0.3 0 0  0.3 0.3 0.3 0 0  0.3 0.3 0.3 0 0  0 0 0 1 0" /></filter></defs><rect x="30" y="20" width="445.5" height="410.2960696220398" fill="#FFF3E0" fill-opacity="0.3" stroke="#FF9800" stroke-width="2" stroke-dasharray="8,4" rx="8" ry="8" /><line x1="45" y1="20" x2="30" y2="20" stroke="#FF9800" stroke-width="3" /><line x1="30" y1="35" x2="30" y2="20" stroke="#FF9800" stroke-width="3" /><line x1="460.5" y1="20" x2="475.5" y2="20" stroke="#FF9800" stroke-width="3" /><line x1="475.5" y1="35" x2="475.5" y2="20" stroke="#FF9800" stroke-width="3" /><line x1="45" y1="430.2960696220398" x2="30" y2="430.2960696220398" stroke="#FF9800" stroke-width="3" /><line x1="30" y1="415.2960696220398" x2="30" y2="430.2960696220398" stroke="#FF9800" stroke-width="3" /><line x1="460.5" y1="430.2960696220398" x2="475.5" y2="430.2960696220398" stroke="#FF9800" stroke-width="3" /><line x1="475.5" y1="415.2960696220398" x2="475.5" y2="430.2960696220398" stroke="#FF9800" stroke-width="3" /><rect x="35" y="25" width="140" height="22" fill="#FF9800" rx="4" /><text x="105" y="40" text-anchor="middle" fill="white" font-size="11" font-weight="bold">Subquery Scope</text><path d="M 252.75 430.2960696220398 C 252.75 460.2960696220398, 400.0 304, 400.0 329" stroke="#FF9800" stroke-width="2" stroke-dasharray="6,3" fill="none" opacity="0.8" /><line x1="400.0" y1="329" x2="392.0249339888412" y2="329.63112765559777" stroke="#FF9800" stroke-width="2" /><line x1="400.0" y1="329" x2="396.5590395771992" y2="336.2221735903202" stroke="#FF9800" stroke-width="2" /><text x="341.375" y="382.1480348110199" fill="#E65100" font-size="9" font-style="italic">subquery result</text><path d="M 400.0 134 L 400.0 124" stroke="#5DADE2" stroke-width="3" stroke-linecap="round" stroke-linejoin="round" fill="none" opacity="0.8" /><line x1="400.0" y1="134" x2="394.0" y2="144.39230484541326" stroke="#3498DB" stroke-width="3" /><line x1="400.0" y1="134" x2="406.0" y2="144.39230484541326" stroke="#3498DB" stroke-width="3" /><path d="M 400.0 239 L 400.0 224" stroke="#5DADE2" stroke-width="3" stroke-linecap="round" stroke-linejoin="round" fill="none" opacity="0.8" /><line x1="400.0" y1="234" x2="394.0" y2="244.39230484541326" stroke="#3498DB" stroke-width="3" /><line x1="400.0" y1="234" x2="406.0" y2="244.39230484541326" stroke="#3498DB" stroke-width="3" /><path d="M 400.0 343.11910116672516 L 400.0 319" stroke="#5DADE2" stroke-width="3" stroke-linecap="round" stroke-linejoin="round" fill="none" opacity="0.8" /><line x1="400.0" y1="329" x2="394.0" y2="339.39230484541326" stroke="#3498DB" stroke-width="3" /><line x1="400.0" y1="329" x2="406.0" y2="339.39230484541326" stroke="#3498DB" stroke-width="3" /><rect x="352.0" y="40" width="96" height="84" fill="#4A90D9" fill-opacity="0.8214477494359016" stroke="#2E5C8A" stroke-width="2" rx="4" ry="4" /><rect x="352.0" y="40" width="96" height="28" fill="#2E5C8A" /><text x="400.0" y="60.0" text-anchor="middle" fill="white" font-size="13" font-weight="bold">employees</text><line x1="360.0" y1="78" x2="440.0" y2="78" stroke="#2E5C8A" stroke-opacity="0.3" /><text x="400.0" y="82" text-anchor="middle" fill="#2E5C8A" font-size="13">name</text><line x1="360.0" y1="100" x2="440.0" y2="100" stroke="#2E5C8A" stroke-opacity="0.3" /><text x="400.0" y="104" text-anchor="middle" fill="#2E5C8A" font-size="13">salary</text><polygon points="344.5,139 455.5,139 416.5,224 383.5,224" fill="#E74C3C" fill-opacity="1.0" stroke="#922B21" stroke-width="3.5" filter="url(#highBetaShadow)"><animate attributeName="stroke-width" values="3.5;5.25;3.5" dur="2s" repeatCount="indefinite" /></polygon><text x="400.0" y="176.5" text-anchor="middle" fill="white" font-size="13" font-weight="bold">Filter</text><text x="465.5" y="151" fill="#E74C3C" font-size="10" font-weight="bold" font-family="monospace">β=1.000</text><text x="400.0" y="193.5" text-anchor="middle" fill="#FFF3E0" font-size="11">salary &gt; (Subquery)</text><path d="M 400.0 227 L 400.0 237 M 396.0 234 L 400.0 237 L 404.0 234" stroke="#922B21" stroke-width="3" fill="none" /><rect x="333.1394051015377" y="239.0" width="34.5737299323082" height="89.11910116672516" fill="#1ABC9C" fill-opacity="0.85" stroke="#2C3E50" stroke-width="1" /><text x="350.4262700676918" y="343.11910116672516" text-anchor="middle" fill="#2C3E50" font-size="13">组1</text><rect x="382.7131350338459" y="259.79445693890256" width="34.5737299323082" height="68.32464422782262" fill="#2ECC71" fill-opacity="0.85" stroke="#2C3E50" stroke-width="1" /><text x="400.0" y="343.11910116672516" text-anchor="middle" fill="#2C3E50" font-size="13">组2</text><rect x="432.2868649661541" y="280.58891387780506" width="34.5737299323082" height="47.53018728892008" fill="#3498DB" fill-opacity="0.85" stroke="#2C3E50" stroke-width="1" /><text x="449.5737299323082" y="343.11910116672516" text-anchor="middle" fill="#2C3E50" font-size="13">组3</text><line x1="328.1394051015377" y1="328.11910116672516" x2="471.8605948984623" y2="328.11910116672516" stroke="#2C3E50" stroke-width="2" /><text x="400.0" y="229" text-anchor="middle" fill="#2C3E50" font-size="11" font-weight="bold">分组聚合</text><rect x="352.0" y="334" width="96" height="80" fill="#58D68D" fill-opacity="0.9228686496615409" stroke="#1E8449" stroke-width="2" rx="6" ry="6" /><rect x="352.0" y="334" width="96" height="24" fill="#1E8449" /><text x="400.0" y="351.0" text-anchor="middle" fill="white" font-size="13" font-weight="bold">Result</text><line x1="360.0" y1="368" x2="440.0" y2="368" stroke="#1E8449" stroke-opacity="0.3" /><text x="400.0" y="372" text-anchor="middle" fill="#1E8449" font-size="13">name</text><line x1="360.0" y1="390" x2="440.0" y2="390" stroke="#1E8449" stroke-opacity="0.3" /><text x="400.0" y="394" text-anchor="middle" fill="#1E8449" font-size="13">salary</text><rect x="620" y="30" width="12" height="12" fill="#4A90D9" fill-opacity="0.8" /><text x="640" y="40" fill="#2C3E50" font-size="13" font-weight="bold">Container</text><text x="680" y="40" fill="#7F8C8D" font-size="12">Table/Result</text><rect x="620" y="65" width="12" height="12" fill="#FFB347" fill-opacity="0.8" /><text x="640" y="75" fill="#2C3E50" font-size="13" font-weight="bold">Funnel</text><text x="680" y="75" fill="#7F8C8D" font-size="12">WHERE/HAVING</text><rect x="620" y="100" width="12" height="12" fill="#1ABC9C" fill-opacity="0.8" /><text x="640" y="110" fill="#2C3E50" font-size="13" font-weight="bold">Stack</text><text x="680" y="110" fill="#7F8C8D" font-size="12">GROUP BY</text><rect x="620" y="135" width="12" height="12" fill="#7F8C8D" fill-opacity="0.8" /><text x="640" y="145" fill="#2C3E50" font-size="13" font-weight="bold">Boundary</text><text x="680" y="145" fill="#7F8C8D" font-size="12">Subquery Scope</text><rect x="460.0" y="45" width="70" height="70" fill="#2980B9" fill-opacity="0.08" stroke="#2980B9" stroke-width="1" stroke-dasharray="3,2" rx="4" ry="4" /><text x="466.0" y="58" fill="#2980B9" font-size="9" font-weight="bold">NL attn: Entity</text><line x1="460.0" y1="80.0" x2="448.0" y2="82.0" stroke="#2980B9" stroke-width="1" stroke-dasharray="2,2" opacity="0.5" /><text x="468.0" y="73" fill="#2980B9" font-size="10" font-weight="bold">lo</text><rect x="499.26" y="65" width="22.74" height="8" fill="#2980B9" fill-opacity="0.34" rx="2" /><text x="468.0" y="89" fill="#2980B9" font-size="10" font-weight="bold">Emp</text><rect x="499.3" y="81" width="22.7" height="8" fill="#2980B9" fill-opacity="0.34" rx="2" /><text x="468.0" y="105" fill="#2980B9" font-size="10" font-weight="bold">es</text><rect x="499.34" y="97" width="22.66" height="8" fill="#2980B9" fill-opacity="0.34" rx="2" /><rect x="467.5" y="144" width="70" height="70" fill="#E67E22" fill-opacity="0.08" stroke="#E67E22" stroke-width="1" stroke-dasharray="3,2" rx="4" ry="4" /><text x="473.5" y="157" fill="#E67E22" font-size="9" font-weight="bold">NL attn: Cond</text><line x1="467.5" y1="179.0" x2="455.5" y2="181.5" stroke="#E67E22" stroke-width="1" stroke-dasharray="2,2" opacity="0.5" /><text x="475.5" y="172" fill="#E67E22" font-size="10" font-weight="normal">ing</text><rect x="517.64" y="164" width="11.86" height="8" fill="#E67E22" fill-opacity="0.18" rx="2" /><text x="475.5" y="188" fill="#E67E22" font-size="10" font-weight="normal">above</text><rect x="517.72" y="180" width="11.78" height="8" fill="#E67E22" fill-opacity="0.18" rx="2" /><text x="475.5" y="204" fill="#E67E22" font-size="10" font-weight="normal">es</text><rect x="518.34" y="196" width="11.16" height="8" fill="#E67E22" fill-opacity="0.17" rx="2" /><rect x="495.1394051015377" y="244" width="70" height="70" fill="#27AE60" fill-opacity="0.08" stroke="#27AE60" stroke-width="1" stroke-dasharray="3,2" rx="4" ry="4" /><text x="501.1394051015377" y="257" fill="#27AE60" font-size="9" font-weight="bold">NL attn: Result</text><line x1="495.1394051015377" y1="279.0" x2="483.1394051015377" y2="283.5595505833626" stroke="#27AE60" stroke-width="1" stroke-dasharray="2,2" opacity="0.5" /><text x="503.1394051015377" y="272" fill="#27AE60" font-size="10" font-weight="normal">ing</text><rect x="545.2794051015377" y="264" width="11.86" height="8" fill="#27AE60" fill-opacity="0.18" rx="2" /><text x="503.1394051015377" y="288" fill="#27AE60" font-size="10" font-weight="normal">above</text><rect x="545.3594051015377" y="280" width="11.78" height="8" fill="#27AE60" fill-opacity="0.18" rx="2" /><text x="503.1394051015377" y="304" fill="#27AE60" font-size="10" font-weight="normal">es</text><rect x="545.9794051015377" y="296" width="11.16" height="8" fill="#27AE60" fill-opacity="0.17" rx="2" /><text x="20" y="420.2960696220398" fill="#2C3E50" font-size="12" font-weight="bold">Query: </text><text x="70" y="420.2960696220398" fill="#34495E" font-size="11">Employees earning above average.</text><text x="20" y="434.2960696220398" fill="#2C3E50" font-size="11" font-weight="bold">SQL: </text><text x="60" y="450.2960696220398" fill="#7F8C8D" font-size="10">SELECT name, salary FROM employees WHERE salary &gt; (SELECT AVG(salary) FROM employees)</text></svg>