<svg xmlns="http://www.w3.org/2000/svg" width="800" height="500" viewBox="0 0 800 500"><defs><filter id="highBetaShadow" x="-30%" y="-30%" width="160%" height="160%"><feGaussianBlur stdDeviation="4" result="coloredBlur" /><feMerge><feMergeNode in="coloredBlur" /><feMergeNode in="SourceGraphic" /></feMerge></filter><filter id="lowBetaGrayscale"><feColorMatrix type="matrix" values="0.3 0.3 0.3 0 0  0.3 0.3 0.3 0 0  0.3 0.3 0.3 0 0  0 0 0 1 0" /></filter></defs><rect x="30" y="20" width="448.5" height="408.17461037635803" fill="#FFF3E0" fill-opacity="0.3" stroke="#FF9800" stroke-width="2" stroke-dasharray="8,4" rx="8" ry="8" /><line x1="45" y1="20" x2="30" y2="20" stroke="#FF9800" stroke-width="3" /><line x1="30" y1="35" x2="30" y2="20" stroke="#FF9800" stroke-width="3" /><line x1="463.5" y1="20" x2="478.5" y2="20" stroke="#FF9800" stroke-width="3" /><line x1="478.5" y1="35" x2="478.5" y2="20" stroke="#FF9800" stroke-width="3" /><line x1="45" y1="428.17461037635803" x2="30" y2="428.17461037635803" stroke="#FF9800" stroke-width="3" /><line x1="30" y1="413.17461037635803" x2="30" y2="428.17461037635803" stroke="#FF9800" stroke-width="3" /><line x1="463.5" y1="428.17461037635803" x2="478.5" y2="428.17461037635803" stroke="#FF9800" stroke-width="3" /><line x1="478.5" y1="413.17461037635803" x2="478.5" y2="428.17461037635803" stroke="#FF9800" stroke-width="3" /><rect x="35" y="25" width="140" height="22" fill="#FF9800" rx="4" /><text x="105" y="40" text-anchor="middle" fill="white" font-size="11" font-weight="bold">Subquery Scope</text><path d="M 254.25 428.17461037635803 C 254.25 458.17461037635803, 400.0 304, 400.0 329" stroke="#FF9800" stroke-width="2" stroke-dasharray="6,3" fill="none" opacity="0.8" /><line x1="400.0" y1="329" x2="392.0218236489761" y2="329.5905100439141" stroke="#FF9800" stroke-width="2" /><line x1="400.0" y1="329" x2="396.5223085237075" y2="336.204558417816" stroke="#FF9800" stroke-width="2" /><text x="342.125" y="381.087305188179" fill="#E65100" font-size="9" font-style="italic">subquery result</text><path d="M 400.0 134 L 400.0 124" stroke="#5DADE2" stroke-width="3" stroke-linecap="round" stroke-linejoin="round" fill="none" opacity="0.8" /><line x1="400.0" y1="134" x2="394.0" y2="144.39230484541326" stroke="#3498DB" stroke-width="3" /><line x1="400.0" y1="134" x2="406.0" y2="144.39230484541326" stroke="#3498DB" stroke-width="3" /><path d="M 400.0 239 L 400.0 224" stroke="#5DADE2" stroke-width="3" stroke-linecap="round" stroke-linejoin="round" fill="none" opacity="0.8" /><line x1="400.0" y1="234" x2="394.0" y2="244.39230484541326" stroke="#3498DB" stroke-width="3" /><line x1="400.0" y1="234" x2="406.0" y2="244.39230484541326" stroke="#3498DB" stroke-width="3" /><path d="M 400.0 355.8074667453766 L 400.0 319" stroke="#5DADE2" stroke-width="3" stroke-linecap="round" stroke-linejoin="round" fill="none" opacity="0.8" /><line x1="400.0" y1="329" x2="394.0" y2="339.39230484541326" stroke="#3498DB" stroke-width="3" /><line x1="400.0" y1="329" x2="406.0" y2="339.39230484541326" stroke="#3498DB" stroke-width="3" /><rect x="349.0" y="40" width="102" height="84" fill="#4A90D9" fill-opacity="0.8366738677024841" stroke="#2E5C8A" stroke-width="2" rx="4" ry="4" /><rect x="349.0" y="40" width="102" height="28" fill="#2E5C8A" /><text x="400.0" y="60.0" text-anchor="middle" fill="white" font-size="13" font-weight="bold">Table</text><line x1="357.0" y1="78" x2="443.0" y2="78" stroke="#2E5C8A" stroke-opacity="0.3" /><text x="400.0" y="82" text-anchor="middle" fill="#2E5C8A" font-size="13">dept</text><line x1="357.0" y1="100" x2="443.0" y2="100" stroke="#2E5C8A" stroke-opacity="0.3" /><text x="400.0" y="104" text-anchor="middle" fill="#2E5C8A" font-size="13">avg_sal</text><polygon points="341.5,139 458.5,139 417.5,224 382.5,224" fill="#E74C3C" fill-opacity="1.0" stroke="#922B21" stroke-width="3.5" filter="url(#highBetaShadow)"><animate attributeName="stroke-width" values="3.5;5.25;3.5" dur="2s" repeatCount="indefinite" /></polygon><text x="400.0" y="176.5" text-anchor="middle" fill="white" font-size="13" font-weight="bold">Filter</text><text x="468.5" y="151" fill="#E74C3C" font-size="10" font-weight="bold" font-family="monospace">β=1.000</text><text x="400.0" y="193.5" text-anchor="middle" fill="#FFF3E0" font-size="11">avg_sal &gt; 8000</text><path d="M 400.0 227 L 400.0 237 M 396.0 234 L 400.0 237 L 404.0 234" stroke="#922B21" stroke-width="3" fill="none" /><rect x="278.99783968925476" y="239.0" width="36.400864124298096" height="101.80746674537659" fill="#1ABC9C" fill-opacity="0.85" stroke="#2C3E50" stroke-width="1" /><text x="297.1982717514038" y="355.8074667453766" text-anchor="middle" fill="#2C3E50" font-size="13">组1</text><rect x="330.39870381355286" y="253.25304534435273" width="36.400864124298096" height="87.55442140102386" fill="#2ECC71" fill-opacity="0.85" stroke="#2C3E50" stroke-width="1" /><text x="348.5991358757019" y="355.8074667453766" text-anchor="middle" fill="#2C3E50" font-size="13">组2</text><rect x="381.79956793785095" y="267.50609068870546" width="36.400864124298096" height="73.30137605667115" fill="#3498DB" fill-opacity="0.85" stroke="#2C3E50" stroke-width="1" /><text x="400.0" y="355.8074667453766" text-anchor="middle" fill="#2C3E50" font-size="13">组3</text><rect x="433.20043206214905" y="281.75913603305816" width="36.400864124298096" height="59.04833071231842" fill="#9B59B6" fill-opacity="0.85" stroke="#2C3E50" stroke-width="1" /><text x="451.4008641242981" y="355.8074667453766" text-anchor="middle" fill="#2C3E50" font-size="13">组4</text><rect x="484.60129618644714" y="296.0121813774109" width="36.400864124298096" height="44.79528536796569" fill="#E67E22" fill-opacity="0.85" stroke="#2C3E50" stroke-width="1" /><text x="502.8017282485962" y="355.8074667453766" text-anchor="middle" fill="#2C3E50" font-size="13">组5</text><line x1="273.99783968925476" y1="340.8074667453766" x2="526.0021603107452" y2="340.8074667453766" stroke="#2C3E50" stroke-width="2" /><text x="400.0" y="229" text-anchor="middle" fill="#2C3E50" font-size="11" font-weight="bold">分组聚合</text><rect x="349.0" y="334" width="102" height="80" fill="#58D68D" fill-opacity="0.9320043206214904" stroke="#1E8449" stroke-width="2" rx="6" ry="6" /><rect x="349.0" y="334" width="102" height="24" fill="#1E8449" /><text x="400.0" y="351.0" text-anchor="middle" fill="white" font-size="13" font-weight="bold">Result</text><line x1="357.0" y1="368" x2="443.0" y2="368" stroke="#1E8449" stroke-opacity="0.3" /><text x="400.0" y="372" text-anchor="middle" fill="#1E8449" font-size="13">dept</text><line x1="357.0" y1="390" x2="443.0" y2="390" stroke="#1E8449" stroke-opacity="0.3" /><text x="400.0" y="394" text-anchor="middle" fill="#1E8449" font-size="13">avg_sal</text><rect x="620" y="30" width="12" height="12" fill="#4A90D9" fill-opacity="0.8" /><text x="640" y="40" fill="#2C3E50" font-size="13" font-weight="bold">Container</text><text x="680" y="40" fill="#7F8C8D" font-size="12">Table/Result</text><rect x="620" y="65" width="12" height="12" fill="#FFB347" fill-opacity="0.8" /><text x="640" y="75" fill="#2C3E50" font-size="13" font-weight="bold">Funnel</text><text x="680" y="75" fill="#7F8C8D" font-size="12">WHERE/HAVING</text><rect x="620" y="100" width="12" height="12" fill="#1ABC9C" fill-opacity="0.8" /><text x="640" y="110" fill="#2C3E50" font-size="13" font-weight="bold">Stack</text><text x="680" y="110" fill="#7F8C8D" font-size="12">GROUP BY</text><rect x="620" y="135" width="12" height="12" fill="#7F8C8D" fill-opacity="0.8" /><text x="640" y="145" fill="#2C3E50" font-size="13" font-weight="bold">Boundary</text><text x="680" y="145" fill="#7F8C8D" font-size="12">Subquery Scope</text><rect x="463.0" y="45" width="77" height="70" fill="#2980B9" fill-opacity="0.08" stroke="#2980B9" stroke-width="1" stroke-dasharray="3,2" rx="4" ry="4" /><text x="469.0" y="58" fill="#2980B9" font-size="9" font-weight="bold">NL attn: Entity</text><line x1="463.0" y1="80.0" x2="451.0" y2="82.0" stroke="#2980B9" stroke-width="1" stroke-dasharray="2,2" opacity="0.5" /><text x="471.0" y="73" fill="#2980B9" font-size="10" font-weight="bold">result</text><rect x="511.22" y="65" width="20.78" height="8" fill="#2980B9" fill-opacity="0.31" rx="2" /><text x="471.0" y="89" fill="#2980B9" font-size="10" font-weight="bold">Top</text><rect x="511.64" y="81" width="20.36" height="8" fill="#2980B9" fill-opacity="0.31" rx="2" /><text x="471.0" y="105" fill="#2980B9" font-size="10" font-weight="normal">ers</text><rect x="512.1" y="97" width="19.900000000000002" height="8" fill="#2980B9" fill-opacity="0.30" rx="2" /><rect x="470.5" y="144" width="70" height="70" fill="#E67E22" fill-opacity="0.08" stroke="#E67E22" stroke-width="1" stroke-dasharray="3,2" rx="4" ry="4" /><text x="476.5" y="157" fill="#E67E22" font-size="9" font-weight="bold">NL attn: Cond</text><line x1="470.5" y1="179.0" x2="458.5" y2="181.5" stroke="#E67E22" stroke-width="1" stroke-dasharray="2,2" opacity="0.5" /><text x="478.5" y="172" fill="#E67E22" font-size="10" font-weight="normal">the</text><rect x="517.38" y="164" width="15.120000000000001" height="8" fill="#E67E22" fill-opacity="0.23" rx="2" /><text x="478.5" y="188" fill="#E67E22" font-size="10" font-weight="normal">from</text><rect x="518.4" y="180" width="14.099999999999998" height="8" fill="#E67E22" fill-opacity="0.21" rx="2" /><text x="478.5" y="204" fill="#E67E22" font-size="10" font-weight="normal">earn</text><rect x="518.68" y="196" width="13.819999999999999" height="8" fill="#E67E22" fill-opacity="0.21" rx="2" /><rect x="440.99783968925476" y="244" width="70" height="70" fill="#27AE60" fill-opacity="0.08" stroke="#27AE60" stroke-width="1" stroke-dasharray="3,2" rx="4" ry="4" /><text x="446.99783968925476" y="257" fill="#27AE60" font-size="9" font-weight="bold">NL attn: Result</text><line x1="440.99783968925476" y1="279.0" x2="428.99783968925476" y2="289.9037333726883" stroke="#27AE60" stroke-width="1" stroke-dasharray="2,2" opacity="0.5" /><text x="448.99783968925476" y="272" fill="#27AE60" font-size="10" font-weight="normal">the</text><rect x="487.87783968925476" y="264" width="15.120000000000001" height="8" fill="#27AE60" fill-opacity="0.23" rx="2" /><text x="448.99783968925476" y="288" fill="#27AE60" font-size="10" font-weight="normal">from</text><rect x="488.89783968925474" y="280" width="14.099999999999998" height="8" fill="#27AE60" fill-opacity="0.21" rx="2" /><text x="448.99783968925476" y="304" fill="#27AE60" font-size="10" font-weight="normal">earn</text><rect x="489.17783968925477" y="296" width="13.819999999999999" height="8" fill="#27AE60" fill-opacity="0.21" rx="2" /><text x="20" y="418.17461037635803" fill="#2C3E50" font-size="12" font-weight="bold">Query: </text><text x="70" y="418.17461037635803" fill="#34495E" font-size="11">Top earners from the aggregated result.</text><text x="20" y="432.17461037635803" fill="#2C3E50" font-size="11" font-weight="bold">SQL: </text><text x="60" y="448.17461037635803" fill="#7F8C8D" font-size="10">SELECT dept, avg_sal FROM (SELECT dept, AVG(salary) AS avg_sal FROM employees GROUP BY</text><text x="60" y="460.17461037635803" fill="#7F8C8D" font-size="10">dept) t WHERE avg_sal &gt; 8000</text></svg>